<?xml version="1.0" encoding="UTF-8"?>
<svg width="1600px" height="900px" viewBox="0 0 1600 900" version="1.1" xmlns="http://www.w3.org/2000/svg" xmlns:xlink="http://www.w3.org/1999/xlink">
    <!-- Generator: Sketch 49.3 (51167) - http://www.bohemiancoding.com/sketch -->
    <title>Artboard</title>
    <desc>Created with Sketch.</desc>
    <defs></defs>
    <g id="Artboard" stroke="none" stroke-width="1" fill="none" fill-rule="evenodd">
        <rect id="Rectangle" fill="#DF6436" x="0" y="0" width="1600" height="900"></rect>
        <path d="M400.227037,375 L494.449259,375 C503.56037,375 511.338148,382.333333 511.338148,391.888889 L511.338148,460.555556 C511.338148,469.666667 503.56037,477.444444 494.449259,477.444444 L493.338148,477.444444 L511.782593,525 L474.004815,525 L455.338148,477.444444 L438.893704,477.444444 L438.893704,525 L400.227037,525 L400.227037,375 Z M472.893704,445.222222 L472.893704,409.444444 C472.893704,408.333333 471.782593,407.222222 470.893704,407.222222 L438.893704,407.222222 L438.893704,447.222222 L470.893704,447.222222 C471.782593,447.222222 472.893704,446.111111 472.893704,445.222222 Z M537.227037,525 L635.227037,525 L635.227037,492.555556 L575.671481,492.555556 L575.671481,465.444444 L627.227037,465.444444 L627.227037,433.444444 L575.671481,433.444444 L575.671481,407.222222 L635.227037,407.222222 L635.227037,375 L537.227037,375 L537.227037,525 Z M768.671481,392.555556 L768.671481,525 L730.004815,525 L730.004815,487.666667 L696.004815,487.666667 L696.004815,525 L657.338148,525 L657.338148,392.555556 C657.338148,382.111111 664.449259,375 674.893704,375 L751.115926,375 C761.56037,375 768.671481,382.111111 768.671481,392.555556 Z M696.004815,455.222222 L730.004815,455.222222 L730.004815,410.111111 C730.004815,407.444444 727.782593,405.666667 724.671481,405.666667 L700.671481,405.666667 C698.004815,405.666667 696.004815,407.666667 696.004815,410.111111 L696.004815,455.222222 Z M796.115926,375 L876.782593,375 C893.227037,375 907.227037,388.555556 907.227037,405.444444 L907.227037,494.333333 C907.227037,511.444444 893.227037,525 876.782593,525 L796.115926,525 L796.115926,375 Z M868.782593,481.666667 L868.782593,418.111111 C868.782593,411.666667 864.338148,407.222222 857.893704,407.222222 L834.782593,407.222222 L834.782593,492.555556 L857.893704,492.555556 C864.338148,492.555556 868.782593,488.111111 868.782593,481.666667 Z M995.782593,498.111111 L1010.8937,498.111111 L1036.22704,438.555556 L1036.22704,525 L1072.67148,525 L1072.67148,375 L1031.78259,375 L1004.00481,445 L973.782593,375 L934.671481,375 L934.671481,525 L970.227037,525 L970.227037,440.111111 L995.782593,498.111111 Z M1101.44926,525 L1199.44926,525 L1199.44926,492.555556 L1139.8937,492.555556 L1139.8937,465.444444 L1191.44926,465.444444 L1191.44926,433.444444 L1139.8937,433.444444 L1139.8937,407.222222 L1199.44926,407.222222 L1199.44926,375 L1101.44926,375 L1101.44926,525 Z" id="README" fill="#FFFFFF" transform="translate(799.838148, 450.000000) scale(-1, 1) translate(-799.838148, -450.000000) "></path>
    </g>
</svg>